# xmcd CD database file
#
# Track frame offsets:
#	150
#	6748
#	24646
#	40149
#	55557
#	71540
#	88054
#	103302
#	117797
#	146201
#	162025
#	178963
#
# Disc length: 2764 seconds
#
# Revision: 3
# Processed by: cddbd v1.5.2PL0 Copyright (c) Steve Scherf et al.
# Submitted via: CDex 1.70beta3
#
DISCID=a80aca0c
DTITLE=Duke Ellington - Duke Ellington At Carnegie Hall December 11, 1943
DYEAR=1900
DGENRE=Jazz
TTITLE0=The Star Spangled Banner
TTITLE1=Take The 'A' Train
TTITLE2=Moon Mist
TTITLE3=Tea For Two
TTITLE4=Honeysuckle Rose
TTITLE5=Excerpts From 'Black, Brown And Beige' Part I
TTITLE6=Excerpts From 'Black, Brown And Beige' Part II
TTITLE7=Ring Dem Bells
TTITLE8=Ellington Medley
TTITLE9=Jack The Bear
TTITLE10=Do Nothing Til You Hear From Me
TTITLE11=Black And Tan Fantasy
EXTD=
EXTT0=
EXTT1=
EXTT2=
EXTT3=
EXTT4=
EXTT5=
EXTT6=
EXTT7=
EXTT8=
EXTT9=
EXTT10=
EXTT11=
PLAYORDER=
